# xmcd
#
# Track frame offsets:
#	150
#	24485
#	49750
#	70694
#	86442
#	109615
#	126408
#	150740
#	170520
#	198075
#	218289
#	234240
#	249484
#	279971
#	305456
#
# Disc length: 4389 seconds
#
# Revision: 2
# Processed by: cddbd v1.5.2PL0 Copyright (c) Steve Scherf et al.
# Submitted via: EZCDAudioConverter 2.1.7.1
#
DISCID=b911230f
DTITLE=Steel Pulse - Handswort Revolution 1/2
DYEAR=2015
DGENRE=
TTITLE0=Handsworth Revolution
TTITLE1=Bad Man
TTITLE2=Soldiers
TTITLE3=Sound Check
TTITLE4=Prodigal Son
TTITLE5=Ku Klux Klan
TTITLE6=Prediction
TTITLE7=Macka Splaff
TTITLE8=Bun Dem
TTITLE9=Revolution Dub [Take 1 – Extended Mix]
TTITLE10=Prodigal Son [7'' Mix]
TTITLE11=Prodigal [Dub]
TTITLE12=Ku Klux Klan [12'' Mix]
TTITLE13=Prediction [12'' Mix]
TTITLE14=Revolution Dub [Take 3]
EXTD=
EXTT0=
EXTT1=
EXTT2=
EXTT3=
EXTT4=
EXTT5=
EXTT6=
EXTT7=
EXTT8=
EXTT9=
EXTT10=
EXTT11=
EXTT12=
EXTT13=
EXTT14=
PLAYORDER=
